# AST/ASF file generated using VICON BodyLanguage
# -----------------------------------------------
:version 1.10
:name VICON
:units
  mass 1.0
  length 0.45
  angle deg
:documentation
   .ast/.asf automatically generated from VICON data using
   VICON BodyBuilder and BodyLanguage model FoxedUp or BRILLIANT.MOD
:root
   order TX TY TZ RX RY RZ
   axis XYZ
   position 0 0 0  
   orientation 0 0 0 
:bonedata
  begin
     id 1 
     name lhipjoint
     direction 0.575328 -0.747301 0.332475 
     length 2.40933 
     axis 0 0 0  XYZ
  end
  begin
     id 2 
     name lfemur
     direction 0.34202 -0.939693 0  
     length 7.31453  
     axis 0 0 20  XYZ
    dof rx ry rz
    limits (-160.0 20.0)
           (-70.0 70.0)
           (-60.0 70.0)
  end
  begin
     id 3 
     name ltibia
     direction 0.34202 -0.939693 0   
     length 7.82185   
     axis 0 0 20   XYZ
    dof rx
    limits (-10.0 170.0)
  end
  begin
     id 4 
     name lfoot
     direction 0.0795993 -0.218697 0.972541   
     length 2.19173   
     axis -90 7.62852e-016 20   XYZ
    dof rx rz
    limits (-45.0 90.0)
           (-70.0 20.0)
  end
  begin
     id 5 
     name ltoes
     direction 1.53537e-011 -4.21894e-011 1   
     length 1.10023   
     axis -90 7.62852e-016 20   XYZ
    dof rx
    limits (-90.0 20.0)
  end
  begin
     id 6 
     name rhipjoint
     direction -0.513884 -0.783789 0.348708   
     length 2.29716  
     axis 0 0 0  XYZ 
  end
  begin
     id 7 
     name rfemur
     direction -0.34202 -0.939693 0   
     length 7.59573   
     axis 0 0 -20   XYZ
    dof rx ry rz
    limits (-160.0 20.0)
           (-70.0 70.0)
           (-70.0 60.0)
  end
  begin
     id 8 
     name rtibia
     direction -0.34202 -0.939693 0   
     length 7.66402   
     axis 0 0 -20   XYZ
    dof rx
    limits (-10.0 170.0)
 end
 begin
     id 9 
     name rfoot
     direction -0.137793 -0.378584 0.915253   
     length 2.27056  
     axis -90 -7.62852e-016 -20   XYZ
    dof rx rz
    limits (-45.0 90.0)
           (-20.0 70.0)
  end
  begin
     id 10 
     name rtoes
     direction -1.53493e-011 -4.22159e-011 1   
     length 1.11766   
     axis -90 -7.62852e-016 -20   XYZ
    dof rx
    limits (-90.0 20.0)
  end
  begin
     id 11 
     name lowerback
     direction -0.00732775 0.998356 -0.05685   
     length 2.16513   
     axis 0 0 0   XYZ
    dof rx ry rz
    limits (-20.0 45.0)
           (-30.0 30.0)
           (-30.0 30.0)
  end
  begin
     id 12 
     name upperback
     direction 0.0218081 0.999627 -0.0164647   
     length 2.16755   
     axis 0 0 0   XYZ
    dof rx ry rz
    limits (-20.0 45.0)
           (-30.0 30.0)
           (-30.0 30.0)
  end
  begin
     id 13 
     name thorax
     direction 0.02365 0.999661 0.0108914   
     length 2.16932   
     axis 0 0 0   XYZ
    dof rx ry rz
    limits (-20.0 45.0)
           (-30.0 30.0)
           (-30.0 30.0)
  end
  begin
     id 14 
     name lowerneck
     direction -0.0523929 0.978385 0.200044   
     length 1.63877   
     axis 0 0 0   XYZ
    dof rx ry rz
    limits (-20.0 45.0)
           (-30.0 30.0)
           (-30.0 30.0)
  end
  begin
     id 15 
     name upperneck
     direction 0.0448674 0.981321 -0.187074   
     length 1.69014   
     axis 0 0 0   XYZ
    dof rx ry rz
    limits (-20.0 45.0)
           (-30.0 30.0)
           (-30.0 30.0)
  end
  begin
     id 16
     name head
     direction 0.0199089 0.996118 -0.0857429  
     length 1.70094  
     axis 0 0 0   XYZ
    dof rx ry rz
    limits (-20.0 45.0)
           (-30.0 30.0)
           (-30.0 30.0)
  end
  begin
     id 17 
     name lclavicle
     direction 0.940366 0.30191 -0.156722  
     length 3.37521  
     axis 0 0 0   XYZ
    dof ry rz
    limits (-20.0 10.0)
           (0.0 20.0)
  end
  begin
     id 18 
     name lhumerus
     direction 1 -4.4897e-011 -1.7911e-027   
     length 5.25287   
     axis 180 -30 -90   XYZ
    dof rx ry rz
    limits (-60.0 90.0)
           (-90.0 90.0)
           (-90.0 90.0)
  end
  begin
     id 19
     name lradius
     direction 1 -4.48951e-011 1.04424e-027   
     length 3.51014   
     axis 180 -30 -90   XYZ
    dof rx
    limits (-10.0 170.0)
  end
  begin
     id 20
     name lwrist
     direction 1 -4.48997e-011 -9.5942e-028   
     length 1.75507   
     axis 8.48502e-016 90 90   XYZ
    dof ry
    limits (-180.0 0.0)
 end
  begin
     id 21 
     name lhand
     direction 1 -4.48831e-011 -1.90777e-027   
     length 0.706179   
     axis 1.22306e-015 90 90   XYZ
    dof rx rz
    limits (-90.0 90.0)
           (-45.0 45.0)
  end
  begin
     id 22 
     name lfingers
     direction 1 -4.49108e-011 -3.85244e-027   
     length 0.569339   
     axis 2.44611e-015 90 90   XYZ
    dof rx
    limits (0.0 90.0)
  end
  begin
     id 23
     name lthumb
     direction 0.707107 -6.34953e-011 0.707107   
     length 0.817461   
     axis -90 45 -1.62303e-014   XYZ
    dof rx rz
    limits (-45.0 45.0)
           (-45.0 45.0)
  end
  begin
     id 24 
     name rclavicle
     direction -0.905329 0.382405 -0.184787   
     length 3.30787  
     axis 0 0 0   XYZ 
    dof ry rz
    limits (-10.0 20.0)
           (-20.0 0.0)
  end
  begin
     id 25 
     name rhumerus
     direction -1 -4.48953e-011 -9.15316e-029  
     length 5.28721   
     axis 180 30 90   XYZ
    dof rx ry rz
    limits (-90.0 60.0)
           (-90.0 90.0)
           (-90.0 90.0)
  end
  begin
     id 26 
     name rradius
     direction -1 -4.48987e-011 9.37824e-028   
     length 3.50544   
     axis 180 30 90   XYZ
    dof rx
    limits (-10.0 170.0)
  end
  begin
     id 27 
     name rwrist
     direction -1 -4.48967e-011 -9.58414e-028   
     length 1.75272   
     axis 8.48502e-016 -90 -90   XYZ
    dof ry
    limits (-180.0 0.0)
  end
  begin
     id 28
     name rhand
     direction -1 -4.48904e-011 -1.91266e-027   
     length 0.884996   
     axis 1.22306e-015 -90 -90   XYZ
    dof rx rz
    limits (-90.0 90.0)
           (-45.0 45.0)
  end
  begin
     id 29
     name rfingers
     direction -1 -4.4909e-011 -3.85015e-027   
     length 0.713507   
     axis 2.44611e-015 -90 -90   XYZ
    dof rx
    limits (0.0 90.0)
  end
  begin
     id 30
     name rthumb
     direction -0.707107 -6.34853e-011 0.707107   
     length 1.02446   
     axis -90 -45 1.62303e-014   XYZ
    dof rx rz
    limits (-45.0 45.0)
           (-45.0 45.0)
  end
:hierarchy
  begin
    root lhipjoint rhipjoint lowerback
    lhipjoint lfemur
    lfemur ltibia
    ltibia lfoot
    lfoot ltoes
    rhipjoint rfemur
    rfemur rtibia
    rtibia rfoot
    rfoot rtoes
    lowerback upperback
    upperback thorax
    thorax lowerneck lclavicle rclavicle
    lowerneck upperneck
    upperneck head
    lclavicle lhumerus
    lhumerus lradius
    lradius lwrist
    lwrist lhand lthumb
    lhand lfingers
    rclavicle rhumerus
    rhumerus rradius
    rradius rwrist
    rwrist rhand rthumb
    rhand rfingers
  end

#!OML:ASF F:\twosubjects\two\Thursday\Session 1\justin.ASF
:FULLY-SPECIFIED
:DEGREES
85
root 7.25048 16.825 -12.8711 28.0231 -2.15194 -3.77431
lowerback 27.5323 1.18957 0.207942
upperback 4.42426 1.85674 2.51341
thorax -10.3943 0.888031 2.05487
lowerneck -19.8478 -2.55595 -9.56755
upperneck -3.12307 -1.55052 8.59767
head 2.31902 -0.344071 4.09461
rclavicle -6.16232e-015 -1.0138e-014
rhumerus 12.9493 41.9544 -53.7399
rradius 63.546
rwrist 13.262
rhand -49.8486 29.2499
rfingers 7.12502
rthumb -22.4438 0.533978
lclavicle -6.16232e-015 -1.0138e-014
lhumerus 9.41832 -40.5955 70.9353
lradius 64.2791
lwrist -33.9969
lhand -20.3896 68.309
lfingers 7.12502
lthumb 5.96364 261.795
rfemur -50.2531 -16.3143 7.94971
rtibia 63.8173
rfoot -8.8639 -7.91591
rtoes -12.5776
lfemur -42.8701 10.3401 -3.82517
ltibia 41.0481
lfoot -20.1981 7.65154
ltoes -19.977
86
root 7.25849 16.8802 -12.7656 28.0889 -2.78872 -3.5581
lowerback 27.5097 1.30516 -0.167313
upperback 4.4284 1.88483 2.42871
thorax -10.3877 0.912196 2.16647
lowerneck -19.7553 -2.48347 -9.90572
upperneck -3.01823 -1.39733 8.78987
head 2.32955 -0.25901 4.22235
rclavicle 7.95139e-015 1.31198e-014
rhumerus 13.1329 42.0023 -54.3229
rradius 62.6853
rwrist 13.6608
rhand -49.7081 29.6853
rfingers 7.12502
rthumb -22.3089 0.953106
lclavicle 7.95139e-015 1.31198e-014
lhumerus 8.85003 -40.1746 71.5835
lradius 63.7605
lwrist -34.1025
lhand -19.8838 68.5482
lfingers 7.12502
lthumb 6.45196 261.57
rfemur -50.8404 -15.9982 7.61064
rtibia 62.3818
rfoot -8.89562 -8.64366
rtoes -10.4181
lfemur -41.7033 10.1546 -4.28129
ltibia 39.8845
lfoot -19.7381 8.62999
ltoes -20.4239
87
root 7.25529 16.9288 -12.6587 28.2102 -3.34973 -3.40078
lowerback 27.3531 1.4477 -0.510643
upperback 4.43019 1.95812 2.35784
thorax -10.3169 0.956374 2.2602
lowerneck -19.7148 -2.37896 -9.91467
upperneck -2.87748 -1.26038 8.64136
head 2.35079 -0.198009 4.18715
rclavicle -1.2921e-014 -3.57812e-015
rhumerus 13.2019 42.0936 -54.8288
rradius 61.8988
rwrist 14.1594
rhand -49.9645 29.2005
rfingers 7.12502
rthumb -22.555 0.498059
lclavicle -1.2921e-014 -3.57812e-015
lhumerus 8.47342 -39.9767 71.9704
lradius 63.2718
lwrist -34.2399
lhand -20.0305 68.2477
lfingers 7.12502
lthumb 6.31035 261.866
rfemur -51.4733 -15.6247 7.40706
rtibia 60.853
rfoot -8.87876 -9.30234
rtoes -14.0989
lfemur -40.5625 10.0793 -4.63986
ltibia 38.6873
lfoot -19.4809 9.2839
ltoes -19.2328
88
root 7.25166 16.972 -12.5543 28.321 -3.52308 -3.5245
lowerback 27.2401 1.44697 -0.271725
upperback 4.35251 2.01855 2.29866
thorax -10.3399 0.975052 2.03484
lowerneck -19.8644 -2.29913 -9.567
upperneck -2.32179 -1.23435 8.40316
head 2.53327 -0.196442 4.05767
rclavicle 1.78906e-015 3.77691e-015
rhumerus 13.0295 42.3037 -55.476
rradius 61.1329
rwrist 14.3735
rhand -50.5455 28.5122
rfingers 7.12502
rthumb -23.1126 -0.1215
lclavicle 1.78906e-015 3.77691e-015
lhumerus 8.16352 -40.1497 72.2119
lradius 62.6465
lwrist -34.1445
lhand -20.6752 68.0226
lfingers 7.12502
lthumb 5.68799 262.074
rfemur -51.918 -15.2993 7.57711
rtibia 59.2186
rfoot -9.24817 -10.26
rtoes -14.6592
lfemur -39.562 9.97111 -4.56038
ltibia 37.5198
lfoot -19.008 9.77388
ltoes -19.3617
89
root 7.2487 17.0127 -12.4476 28.38 -3.77862 -3.76933
lowerback 27.0979 1.5115 -0.0790417
upperback 4.30772 2.15876 2.33696
thorax -10.3184 1.03347 1.9187
lowerneck -19.7929 -2.19446 -9.44165
upperneck -2.03796 -1.13803 8.31339
head 2.59902 -0.155328 4.01643
rclavicle -3.37934e-015 -5.96354e-015
rhumerus 12.8852 42.5009 -56.0166
rradius 60.4281
rwrist 14.0944
rhand -50.4538 29.1897
rfingers 7.12502
rthumb -23.0246 0.545037
lclavicle -3.37934e-015 -5.96354e-015
lhumerus 7.75404 -40.1199 72.7223
lradius 62.0089
lwrist -34.1452
lhand -21.1262 68.0556
lfingers 7.12502
lthumb 5.25254 262.03
rfemur -52.2826 -14.8717 7.82681
rtibia 57.477
rfoot -9.67959 -10.8416
rtoes -14.6
lfemur -38.5141 9.90849 -4.3643
ltibia 36.4343
lfoot -18.4618 10.3593
ltoes -21.1645
90
root 7.24435 17.0508 -12.3412 28.4671 -4.22636 -3.88788
lowerback 26.8459 1.66167 -0.258408
upperback 4.32815 2.30805 2.43659
thorax -10.1827 1.11034 2.08525
lowerneck -19.7358 -2.1684 -9.68071
upperneck -1.87786 -1.06437 8.39108
head 2.63517 -0.116046 4.0857
rclavicle -3.97569e-015 -1.59028e-014
rhumerus 12.8341 42.7492 -56.293
rradius 59.9606
rwrist 13.7565
rhand -50.3997 29.9116
rfingers 7.12502
rthumb -22.9727 1.26047
lclavicle -3.97569e-015 -1.59028e-014
lhumerus 7.33426 -39.8685 73.3292
lradius 61.4569
lwrist -34.1239
lhand -21.7969 68.0604
lfingers 7.12502
lthumb 4.6049 262.01
rfemur -52.8015 -14.488 7.93654
rtibia 55.6462
rfoot -10.051 -10.804
rtoes -16.5299
lfemur -37.5222 9.89404 -4.40093
ltibia 35.5234
lfoot -18.2841 10.9498
ltoes -21.2444
91
root 7.23976 17.0793 -12.2359 28.4325 -4.61895 -3.57819
lowerback 26.7417 1.68891 -0.539024
upperback 4.36004 2.2508 2.33236
thorax -10.0961 1.09134 2.15141
lowerneck -19.7705 -2.13433 -9.82357
upperneck -1.60969 -1.00032 8.50981
head 2.71884 -0.0786368 4.15236
rclavicle -2.127e-014 -1.88845e-014
rhumerus 12.5736 42.8617 -56.9293
rradius 59.628
rwrist 14.1101
rhand -51.0291 29.8086
rfingers 7.12502
rthumb -23.5765 1.23379
lclavicle -2.127e-014 -1.88845e-014
lhumerus 7.12969 -39.7132 73.5897
lradius 60.7628
lwrist -34.1836
lhand -21.9268 67.9898
lfingers 7.12502
lthumb 4.47944 262.078
rfemur -53.1278 -14.3357 7.55953
rtibia 53.7176
rfoot -10.3965 -10.2122
rtoes -18.256
lfemur -36.6237 9.86081 -4.95901
ltibia 34.7267
lfoot -17.8623 11.5998
ltoes -21.5983
92
root 7.23252 17.1046 -12.1326 28.3024 -4.83348 -3.11625
lowerback 26.747 1.61394 -0.705596
upperback 4.34811 2.08887 2.15428
thorax -10.1032 1.01928 2.10354
lowerneck -19.5151 -2.00673 -9.82338
upperneck -1.55658 -0.85591 8.51601
head 2.68508 -0.0116868 4.16465
rclavicle 3.37934e-015 -1.21259e-014
rhumerus 12.1321 42.8041 -57.8805
rradius 59.2339
rwrist 14.5989
rhand -51.2845 30.3234
rfingers 7.12502
rthumb -23.8215 1.78037
lclavicle 3.37934e-015 -1.21259e-014
lhumerus 6.80133 -39.6439 73.8132
lradius 60.1147
lwrist -34.2189
lhand -21.5671 67.865
lfingers 7.12502
lthumb 4.82674 262.21
rfemur -53.1503 -14.1338 6.9398
rtibia 51.6736
rfoot -10.4942 -9.77176
rtoes -18.3324
lfemur -35.7475 9.72487 -5.61214
ltibia 33.9734
lfoot -17.4881 11.9564
ltoes -21.4909
93
root 7.22238 17.1316 -12.0304 28.1736 -4.76755 -2.87738
lowerback 26.662 1.49644 -0.606346
upperback 4.39429 1.96282 2.12964
thorax -9.99697 0.956728 2.06321
lowerneck -19.3843 -1.9813 -9.68089
upperneck -1.48228 -0.860225 8.30752
head 2.68527 -0.0271585 4.07435
rclavicle -7.35503e-015 -3.37934e-015
rhumerus 11.9067 42.734 -58.4969
rradius 58.8266
rwrist 14.7145
rhand -51.4027 31.2503
rfingers 7.12502
rthumb -23.9348 2.72211
lclavicle -7.35503e-015 -3.37934e-015
lhumerus 6.33125 -39.4856 74.1888
lradius 59.7442
lwrist -34.0967
lhand -21.5754 67.6748
lfingers 7.12502
lthumb 4.81879 262.4
rfemur -53.0322 -13.8836 6.59783
rtibia 49.5261
rfoot -10.1996 -9.5401
rtoes -18.9156
lfemur -34.904 9.41405 -5.85685
ltibia 33.2132
lfoot -17.1768 12.257
ltoes -21.7713
94
root 7.21035 17.1628 -11.9228 27.9534 -4.70642 -2.72072
lowerback 26.5861 1.4592 -0.488799
upperback 4.54167 1.94723 2.15878
thorax -9.78746 0.944226 2.03447
lowerneck -19.364 -1.95204 -9.36528
upperneck -1.37688 -0.881934 7.95035
head 2.70983 -0.0562916 3.90821
rclavicle 5.36719e-015 1.15295e-014
rhumerus 11.8539 42.711 -58.7624
rradius 58.48
rwrist 14.6106
rhand -51.5589 31.5363
rfingers 7.12502
rthumb -24.0846 3.02785
lclavicle 5.36719e-015 1.15295e-014
lhumerus 6.09862 -39.5817 74.4306
lradius 59.4373
lwrist -33.6386
lhand -21.5995 67.5414
lfingers 7.12502
lthumb 4.79552 262.533
rfemur -52.7801 -13.634 6.32227
rtibia 47.2837
rfoot -9.69195 -8.87533
rtoes -20.9187
lfemur -33.9601 9.30225 -6.07003
ltibia 32.4305
lfoot -16.6944 12.5684
ltoes -22.9355
95
root 7.19416 17.2037 -11.8186 27.7656 -4.71518 -2.66633
lowerback 26.6025 1.48554 -0.380367
upperback 4.59215 2.01695 2.22756
thorax -9.74085 0.97354 2.02504
lowerneck -19.2949 -1.90241 -9.40029
upperneck -1.15379 -0.818929 7.88003
head 2.76142 -0.0303751 3.89669
rclavicle 2.78299e-015 -3.97569e-015
rhumerus 11.6624 42.8983 -58.9846
rradius 58.1651
rwrist 14.3918
rhand -51.3578 31.2326
rfingers 7.12502
rthumb -23.8917 2.69877
lclavicle 2.78299e-015 -3.97569e-015
lhumerus 5.98455 -40.223 74.4597
lradius 58.9868
lwrist -32.6167
lhand -21.9687 67.7807
lfingers 7.12502
lthumb 4.43895 262.286
rfemur -52.5688 -13.0918 6.00937
rtibia 44.9965
rfoot -9.46586 -7.97994
rtoes -23.6335
lfemur -33.0317 9.47424 -6.25419
ltibia 31.6542
lfoot -16.3699 12.5039
ltoes -22.2941
96
root 7.17243 17.2435 -11.7201 27.5998 -4.57563 -2.64823
lowerback 26.598 1.39399 -0.262221
upperback 4.65806 1.94796 2.3792
thorax -9.66305 0.939663 2.15058
lowerneck -19.4798 -1.91183 -9.59187
upperneck -0.819287 -0.783067 7.84816
head 2.88725 -0.0124618 3.9221
rclavicle 0 6.36111e-015
rhumerus 11.729 43.2708 -59.0322
rradius 57.7453
rwrist 14.6689
rhand -51.2796 30.564
rfingers 7.12502
rthumb -23.8167 2.02035
lclavicle 0 6.36111e-015
lhumerus 5.88223 -40.4991 74.5066
lradius 58.4292
lwrist -31.8967
lhand -22.7348 68.1304
lfingers 7.12502
lthumb 3.69924 261.922
rfemur -52.3264 -12.3875 5.66988
rtibia 42.692
rfoot -9.23444 -7.06797
rtoes -25.7729
lfemur -32.2138 9.69973 -6.34185
ltibia 30.9569
lfoot -16.125 12.2764
ltoes -21.8188
97
root 7.14893 17.2594 -11.6169 27.4437 -4.4495 -2.34049
lowerback 26.4177 1.25775 -0.406572
upperback 4.7661 1.73759 2.43115
thorax -9.44514 0.846286 2.36486
lowerneck -19.3985 -1.82852 -9.48883
upperneck -0.906724 -0.689254 7.64638
head 2.83736 0.0233792 3.8482
rclavicle -1.59028e-015 1.05356e-014
rhumerus 11.7365 43.5108 -59.3446
rradius 57.3399
rwrist 15.3062
rhand -50.9032 30.7495
rfingers 7.12502
rthumb -23.4557 2.15921
lclavicle -1.59028e-015 1.05356e-014
lhumerus 5.60462 -40.1123 74.8315
lradius 57.8732
lwrist -31.9954
lhand -23.4527 68.0072
lfingers 7.12502
lthumb 3.00594 262.034
rfemur -52.0726 -11.9792 5.1104
rtibia 40.3751
rfoot -8.54359 -5.83141
rtoes -26.7409
lfemur -31.5011 9.85046 -6.72566
ltibia 30.4007
lfoot -15.8125 12.1666
ltoes -23.3964
98
root 7.12257 17.2654 -11.5099 27.2617 -4.37205 -2.03033
lowerback 26.3229 1.14735 -0.481359
upperback 4.76642 1.57276 2.3919
thorax -9.38893 0.771655 2.42013
lowerneck -19.074 -1.74076 -9.49623
upperneck -0.965395 -0.598604 7.66495
head 2.76464 0.0638656 3.8606
rclavicle -5.96354e-015 -2.42517e-014
rhumerus 11.3949 43.8376 -59.8941
rradius 57.1555
rwrist 15.1429
rhand -50.5562 31.6636
rfingers 7.12502
rthumb -23.1229 3.03119
lclavicle -5.96354e-015 -2.42517e-014
lhumerus 4.91666 -39.7624 75.3753
lradius 57.504
lwrist -32.4144
lhand -23.6608 67.5095
lfingers 7.12502
lthumb 2.80494 262.529
rfemur -51.8056 -11.5688 4.58766
rtibia 38.1012
rfoot -7.77555 -4.57521
rtoes -28.4709
lfemur -30.7113 9.85519 -7.01762
ltibia 29.8814
lfoot -15.5073 12.0534
ltoes -24.389
